<svg xmlns="http://www.w3.org/2000/svg" viewBox="0 0 64 64" fill="none">
  <defs>
    <linearGradient id="lifeflowDrop" x1="14" y1="10" x2="49" y2="54" gradientUnits="userSpaceOnUse">
      <stop stop-color="#fb7185" />
      <stop offset="1" stop-color="#dc2626" />
    </linearGradient>
  </defs>
  <rect width="64" height="64" rx="18" fill="#fff4f6" />
  <path
    d="M32 10C32 10 18 25.4 18 36.4C18 45.6 24.8 53 32 53C39.2 53 46 45.6 46 36.4C46 25.4 32 10 32 10Z"
    fill="url(#lifeflowDrop)"
  />
  <path
    d="M39 35H34V30C34 28.9 33.1 28 32 28C30.9 28 30 28.9 30 30V35H25C23.9 35 23 35.9 23 37C23 38.1 23.9 39 25 39H30V44C30 45.1 30.9 46 32 46C33.1 46 34 45.1 34 44V39H39C40.1 39 41 38.1 41 37C41 35.9 40.1 35 39 35Z"
    fill="white"
  />
</svg>
